<?xml version="1.0" encoding="UTF-8" standalone="no"?>
<svg
   xmlns:dc="http://purl.org/dc/elements/1.1/"
   xmlns:cc="http://creativecommons.org/ns#"
   xmlns:rdf="http://www.w3.org/1999/02/22-rdf-syntax-ns#"
   xmlns:svg="http://www.w3.org/2000/svg"
   xmlns="http://www.w3.org/2000/svg"
   viewBox="0 0 529.20001 260.26666"
   height="260.26666"
   width="529.20001"
   xml:space="preserve"
   id="svg2"
   version="1.1"><metadata
     id="metadata8"><rdf:RDF><cc:Work
         rdf:about=""><dc:format>image/svg+xml</dc:format><dc:type
           rdf:resource="http://purl.org/dc/dcmitype/StillImage" /></cc:Work></rdf:RDF></metadata><defs
     id="defs6" /><g
     transform="matrix(1.3333333,0,0,-1.3333333,0,260.26667)"
     id="g10"><g
       transform="scale(0.1)"
       id="g12"><path
         id="path14"
         style="fill:#1478c7;fill-opacity:1;fill-rule:nonzero;stroke:none"
         d="M 3969.03,465.578 H 1249.84 V 0 h 2719.19 v 465.578" /><path
         id="path16"
         style="fill:#ffffff;fill-opacity:1;fill-rule:nonzero;stroke:none"
         d="m 1370.94,202.039 v -11.078 c 0,-16 6.15,-20.18 16.49,-20.18 8.61,0 14.03,6.399 14.03,17.231 0,10.578 -5.42,16.488 -16.25,23.129 l -25.59,15.75 c -15.02,9.109 -25.11,25.347 -25.11,48.488 0,31.262 20.68,48.492 52.43,48.492 28.79,0 52.91,-15.762 52.91,-54.152 v -2.949 h -38.39 v 3.691 c 0,15.258 -5.66,21.66 -15.01,21.66 -8.37,0 -13.05,-5.172 -13.05,-13.051 0,-9.601 3.45,-15.011 13.78,-21.16 l 26.34,-16.012 c 15.75,-9.589 26.33,-21.648 26.33,-48.726 0,-36.672 -19.93,-54.141 -53.4,-54.141 -36.92,0 -54.4,16.981 -54.4,49.957 v 13.051 h 38.89" /><path
         id="path18"
         style="fill:#ffffff;fill-opacity:1;fill-rule:nonzero;stroke:none"
         d="m 1584.88,243.879 h 7.63 c 10.59,0 20.67,5.16 20.67,22.641 0,17.468 -9.1,21.66 -21.41,21.66 h -6.89 z m 0,-100.668 H 1542.3 V 319.93 h 61.78 c 24.61,0 51.69,-8.86 51.69,-53.91 0,-43.559 -26.59,-53.891 -51.69,-53.891 h -19.2 v -68.918" /><path
         id="path20"
         style="fill:#ffffff;fill-opacity:1;fill-rule:nonzero;stroke:none"
         d="m 1809.89,210.398 -11.32,77.782 h -0.24 l -11.08,-77.782 z m 14.77,109.532 39.13,-176.719 h -41.84 l -6.4,35.437 h -32.48 l -5.42,-35.437 h -42.33 l 38.39,176.719 h 50.95" /><path
         id="path22"
         style="fill:#ffffff;fill-opacity:1;fill-rule:nonzero;stroke:none"
         d="m 2069.62,213.109 v -16.488 c 0,-40.121 -18.21,-57.59 -57.6,-57.59 -39.13,0 -57.59,17.231 -57.59,57.828 v 77.039 c 0,27.821 17.23,49.973 57.59,49.973 39.87,0 57.6,-22.652 57.6,-50.211 v -12.058 h -42.59 v 16 c 0,9.347 -8.86,13.777 -15.5,13.777 -7.14,0 -14.52,-3.938 -14.52,-13.039 v -88.121 c 0,-13.289 5.66,-18.707 14.52,-18.707 9.1,0 15.5,4.918 15.5,18.207 v 23.39 h 42.59" /><path
         id="path24"
         style="fill:#ffffff;fill-opacity:1;fill-rule:nonzero;stroke:none"
         d="m 2171.32,319.93 h 98.94 v -33.481 h -56.36 v -34.687 h 50.46 v -33.481 h -50.46 v -41.59 h 56.36 v -33.48 h -98.94 V 319.93" /><path
         id="path26"
         style="fill:#ffffff;fill-opacity:1;fill-rule:nonzero;stroke:none"
         d="m 2547.73,202.039 v -11.078 c 0,-16 6.16,-20.18 16.5,-20.18 8.61,0 14.02,6.399 14.02,17.231 0,10.578 -5.41,16.488 -16.24,23.129 l -25.59,15.75 c -15.02,9.109 -25.11,25.347 -25.11,48.488 0,31.262 20.67,48.492 52.42,48.492 28.8,0 52.92,-15.762 52.92,-54.152 v -2.949 h -38.4 v 3.691 c 0,15.258 -5.65,21.66 -15.01,21.66 -8.37,0 -13.04,-5.172 -13.04,-13.051 0,-9.601 3.44,-15.011 13.78,-21.16 l 26.33,-16.012 c 15.75,-9.589 26.34,-21.648 26.34,-48.726 0,-36.672 -19.93,-54.141 -53.41,-54.141 -36.91,0 -54.39,16.981 -54.39,49.957 v 13.051 h 38.88" /><path
         id="path28"
         style="fill:#ffffff;fill-opacity:1;fill-rule:nonzero;stroke:none"
         d="m 2751.84,319.93 22.14,-55.871 22.16,55.871 h 41.11 l -42.84,-98.2 v -78.519 h -42.57 v 78.519 l -43.07,98.2 h 43.07" /><path
         id="path30"
         style="fill:#ffffff;fill-opacity:1;fill-rule:nonzero;stroke:none"
         d="m 2967.25,202.039 v -11.078 c 0,-16 6.15,-20.18 16.49,-20.18 8.61,0 14.02,6.399 14.02,17.231 0,10.578 -5.41,16.488 -16.24,23.129 l -25.59,15.75 c -15.02,9.109 -25.11,25.347 -25.11,48.488 0,31.262 20.67,48.492 52.42,48.492 28.8,0 52.92,-15.762 52.92,-54.152 v -2.949 h -38.4 v 3.691 c 0,15.258 -5.65,21.66 -15.01,21.66 -8.37,0 -13.04,-5.172 -13.04,-13.051 0,-9.601 3.44,-15.011 13.79,-21.16 l 26.32,-16.012 c 15.76,-9.589 26.34,-21.648 26.34,-48.726 0,-36.672 -19.93,-54.141 -53.41,-54.141 -36.91,0 -54.39,16.981 -54.39,49.957 v 13.051 h 38.89" /><path
         id="path32"
         style="fill:#ffffff;fill-opacity:1;fill-rule:nonzero;stroke:none"
         d="m 3202.85,143.211 h -39.13 v 143.238 h -33.48 v 33.481 h 103.87 v -33.481 h -31.26 V 143.211" /><path
         id="path34"
         style="fill:#ffffff;fill-opacity:1;fill-rule:nonzero;stroke:none"
         d="m 3329.9,319.93 h 98.95 v -33.481 h -56.37 v -34.687 h 50.46 v -33.481 h -50.46 v -41.59 h 56.37 v -33.48 H 3329.9 V 319.93" /><path
         id="path36"
         style="fill:#ffffff;fill-opacity:1;fill-rule:nonzero;stroke:none"
         d="m 3585.68,319.93 13.78,-71.621 c 2.96,-14.52 4.44,-39.137 6.41,-55.868 h 0.49 c 1.97,16 3.93,43.309 6.39,55.868 l 13.79,71.621 h 59.32 V 143.211 h -40.62 v 62.019 c 0,16.989 1.23,62.282 2.22,77.04 h -0.24 l -26.34,-139.059 h -29.53 l -26.34,139.059 h -0.24 c 0.73,-12.301 2.21,-52.918 2.21,-76.79 v -62.269 h -40.61 V 319.93 h 59.31" /><path
         id="path38"
         style="fill:#ffffff;fill-opacity:1;fill-rule:nonzero;stroke:none"
         d="m 3825.97,202.039 v -11.078 c 0,-16 6.15,-20.18 16.49,-20.18 8.61,0 14.02,6.399 14.02,17.231 0,10.578 -5.41,16.488 -16.24,23.129 l -25.59,15.75 c -15.02,9.109 -25.11,25.347 -25.11,48.488 0,31.262 20.67,48.492 52.42,48.492 28.8,0 52.92,-15.762 52.92,-54.152 v -2.949 h -38.4 v 3.691 c 0,15.258 -5.65,21.66 -15.01,21.66 -8.36,0 -13.04,-5.172 -13.04,-13.051 0,-9.601 3.45,-15.011 13.79,-21.16 l 26.32,-16.012 c 15.76,-9.589 26.34,-21.648 26.34,-48.726 0,-36.672 -19.93,-54.141 -53.41,-54.141 -36.91,0 -54.39,16.981 -54.39,49.957 v 13.051 h 38.89" /><path
         id="path40"
         style="fill:#1478c7;fill-opacity:1;fill-rule:nonzero;stroke:none"
         d="m 1067.23,1291.84 c -1.57,-69.14 -9.83,-142.14 -20.34,-185.73 3.77,75.2 -5.29,181.18 -22.55,263.99 -17.31,82.77 -66.215,220.88 -105.277,284.97 -36.075,-60.95 -80.547,-180.56 -103.77,-284.25 -23.359,-103.85 -24.102,-229.39 -24.102,-267.03 -6.171,31.8 -21.738,144.96 -17.304,258.71 3.574,93.89 25.625,190.29 37.636,234.7 45.879,148.15 97.754,242.82 107.54,257.8 9.765,-14.98 75.175,-131.62 109.027,-254.16 33.77,-122.54 40.52,-239.85 39.14,-309 z M 919.844,762.648 c -20.313,38.313 -51.934,111.243 -54.942,223.836 -0.761,109.026 42.871,202.426 55.567,221.856 11.386,-19.43 48.906,-100.77 53.437,-212.031 2.989,-108.887 -33.086,-194.59 -54.062,-233.661 m 159.396,836.762 c -41.35,181.18 -145.138,328.5 -159.396,352.58 -22.676,-33.83 -105.43,-163.86 -147.422,-308.3 -45.918,-160.9 -52.656,-303.73 -36.797,-444.33 15.684,-140.65 75.156,-284.95 75.156,-284.95 31.582,-75.84 78.867,-156.949 109.688,-196.808 45.117,58.628 148.961,233.57 181.331,462.238 17.99,126.98 18.71,238.3 -22.56,419.57" /><path
         id="path42"
         style="fill:#1478c7;fill-opacity:1;fill-rule:nonzero;stroke:none"
         d="M 990.059,675.391 H 675.352 v -211.25 c 0.273,0.308 0.507,0.621 0.82,0.941 74.141,74.059 194.336,74.059 268.437,0 74.201,-74.184 74.201,-194.422 0,-268.523 -0.332,-0.387 -0.605,-0.618 -0.957,-0.957 v 0 c -0.312,-0.372 -0.761,-0.723 -1.054,-1.051 C 868.672,121.191 771.973,84.3281 675.352,84.3281 578.34,84.3281 481.25,121.5 407.109,195.449 276.641,325.969 261.152,527.93 360.664,675.391 c 13.438,19.918 28.809,38.789 46.445,56.418 74.141,74.089 171.231,111 268.243,111 V 1350.53 C 302.344,1350.53 0,1048.07 0,675.391 0,302.379 302.344,0 675.352,0 869.883,0 1045.08,82.2109 1168.26,213.73 V 675.391 H 990.059" /><path
         id="path44"
         style="fill:#1478c7;fill-opacity:1;fill-rule:nonzero;stroke:none"
         d="m 1567.11,799.059 c 0,-47.36 -5.88,-120.879 -100.59,-120.879 h -112.11 c -94.64,0 -100.41,73.519 -100.41,120.879 v 434.711 c 0,47.4 5.77,120.84 100.41,120.84 h 112.11 c 94.71,0 100.59,-73.44 100.59,-120.84 v -95.68 h -135.39 v 110.33 c 0,11.52 -8.67,22.24 -21.17,22.24 -7.76,0 -21.27,-4.72 -21.27,-22.24 V 787.211 c 0,-17.352 13.51,-22.25 21.27,-22.25 12.5,0 21.17,10.719 21.17,22.25 v 148.098 h -20.26 v 74.391 h 155.65 V 799.059" /><path
         id="path46"
         style="fill:#1478c7;fill-opacity:1;fill-rule:nonzero;stroke:none"
         d="m 1618.32,678.18 h 132.31 l 12.5,179.711 h 63.76 l 12.56,-179.711 h 132.52 l -70.62,676.43 h -212.62 z m 149.65,254.101 23.22,338.069 h 7.81 l 23.11,-338.069 h -54.14" /><path
         id="path48"
         style="fill:#1478c7;fill-opacity:1;fill-rule:nonzero;stroke:none"
         d="m 2016.78,763.238 129.45,507.052 h -115.88 v 84.32 h 255.04 v -84.1 L 2156,764.898 h 137.13 V 678.18 h -276.35 v 85.058" /><path
         id="path50"
         style="fill:#1478c7;fill-opacity:1;fill-rule:nonzero;stroke:none"
         d="m 2346.93,678.18 h 135.36 v 230.019 h 77.24 c 94.83,0 100.67,73.344 100.67,120.751 v 204.82 c 0,47.4 -5.84,120.84 -100.67,120.84 h -212.6 z m 135.36,314.457 v 278.083 h 17.34 c 14.57,0 25.12,-12.6 25.12,-33.83 v -210.52 c 0,-21.23 -10.55,-33.733 -25.12,-33.733 h -17.34" /><path
         id="path52"
         style="fill:#1478c7;fill-opacity:1;fill-rule:nonzero;stroke:none"
         d="m 3041.64,678.18 -66.7,263.75 c 48.4,19.394 49.36,63.79 49.36,82.23 v 209.61 c 0,47.4 -5.82,120.84 -100.47,120.84 H 2711.25 V 678.18 h 135.27 v 250.332 h 9.69 L 2902.6,678.18 Z m -195.12,334.67 v 257.87 h 17.35 c 14.49,0 25.15,-12.6 25.15,-33.83 v -190.21 c 0,-21.35 -10.66,-33.83 -25.15,-33.83 h -17.35" /><path
         id="path54"
         style="fill:#1478c7;fill-opacity:1;fill-rule:nonzero;stroke:none"
         d="m 3075.57,799.059 c 0,-47.36 5.84,-120.879 100.47,-120.879 h 112.12 c 94.63,0 100.41,73.519 100.41,120.879 v 434.711 c 0,47.4 -5.78,120.84 -100.41,120.84 h -112.12 c -94.63,0 -100.47,-73.44 -100.47,-120.84 z m 177.73,-11.95 c 0,-11.429 -8.57,-22.211 -21.17,-22.211 -7.83,0 -21.33,4.864 -21.33,22.211 v 461.311 c 0,17.5 13.5,22.24 21.33,22.24 12.6,0 21.17,-10.72 21.17,-22.24 V 787.109" /><path
         id="path56"
         style="fill:#1478c7;fill-opacity:1;fill-rule:nonzero;stroke:none"
         d="m 3791.6,1354.61 h 175.74 V 678.18 h -135.15 v 424.2 h -4.92 l -69.56,-424.2 h -108.2 l -69.51,424.2 h -4.92 v -424.2 h -135.2 v 676.43 h 175.78 l 87.91,-475.43 88.03,475.43" /></g></g></svg>